<svg width="11" height="11" viewBox="0 0 11 11" fill="none" xmlns="http://www.w3.org/2000/svg">
<g clip-path="url(#clip0_970_3022)">
<path d="M3.11163 8.889C3.11163 8.15262 4.10655 7.55566 5.33385 7.55566C6.56115 7.55566 7.55607 8.15262 7.55607 8.889" stroke="#A4A4A4" stroke-linecap="round" stroke-linejoin="round"/>
<path d="M8.00052 6.33301C8.78537 6.53876 9.33385 7.00864 9.33385 7.5554" stroke="#A4A4A4" stroke-linecap="round" stroke-linejoin="round"/>
<path d="M2.66719 6.33301C1.88234 6.53876 1.33385 7.00864 1.33385 7.5554" stroke="#A4A4A4" stroke-linecap="round" stroke-linejoin="round"/>
<path d="M5.33385 6.22233C6.07023 6.22233 6.66719 5.62538 6.66719 4.889C6.66719 4.15262 6.07023 3.55566 5.33385 3.55566C4.59747 3.55566 4.00052 4.15262 4.00052 4.889C4.00052 5.62538 4.59747 6.22233 5.33385 6.22233Z" stroke="#A4A4A4" stroke-linecap="round" stroke-linejoin="round"/>
<path d="M8.00052 4.54933C8.2733 4.30518 8.44496 3.95039 8.44496 3.5555C8.44496 2.81912 7.84801 2.22217 7.11163 2.22217C6.77014 2.22217 6.45863 2.35055 6.22274 2.56168" stroke="#A4A4A4" stroke-linecap="round" stroke-linejoin="round"/>
<path d="M2.66718 4.54933C2.39441 4.30518 2.22274 3.95039 2.22274 3.5555C2.22274 2.81912 2.81969 2.22217 3.55607 2.22217C3.89756 2.22217 4.20907 2.35055 4.44496 2.56168" stroke="#A4A4A4" stroke-linecap="round" stroke-linejoin="round"/>
</g>
<defs>
<clipPath id="clip0_970_3022">
<rect width="10.6667" height="10.6667" fill="white" transform="translate(0.000518799)"/>
</clipPath>
</defs>
</svg>
