<svg width="10" height="14" viewBox="0 0 10 14" fill="none" xmlns="http://www.w3.org/2000/svg">
<path d="M5.0001 14.0034C2.23862 14.0034 0 11.7239 0 8.91201C0.00991029 7.53764 0.476994 6.20727 1.32503 5.13801C2.31359 3.83479 2.87151 2.2463 2.91881 0.600293C2.93057 0.389687 3.04405 0.1987 3.2218 0.0903569C3.39955 -0.0179863 3.61847 -0.0296065 3.80632 0.059331C5.9419 0.995335 7.41101 3.03702 7.6439 5.39258C7.78826 5.1941 7.91185 4.98079 8.01266 4.75615C8.09132 4.53467 8.28366 4.37554 8.51267 4.34247C8.74283 4.31033 8.97151 4.41082 9.10643 4.60341C9.20018 4.71797 10.0002 5.9399 10.0002 8.91201C10.0154 10.267 9.49352 11.5711 8.5525 12.5293C7.61148 13.4875 6.33082 14.0189 5.0001 14.0034Z" fill="#989CA1"/>
</svg>
